<?xml version="1.0" encoding="UTF-8" standalone="no"?>
<svg
   xmlns:dc="http://purl.org/dc/elements/1.1/"
   xmlns:cc="http://creativecommons.org/ns#"
   xmlns:rdf="http://www.w3.org/1999/02/22-rdf-syntax-ns#"
   xmlns:svg="http://www.w3.org/2000/svg"
   xmlns="http://www.w3.org/2000/svg"
   viewBox="462 345 130 128"
   height="512"
   width="512"
   xml:space="preserve"
   id="svg2"
   version="1.1"><metadata
     id="metadata8"><rdf:RDF><cc:Work
         rdf:about=""><dc:format>image/svg+xml</dc:format><dc:type
           rdf:resource="http://purl.org/dc/dcmitype/StillImage" /></cc:Work></rdf:RDF></metadata><defs
     id="defs6"><clipPath
       id="clipPath18"
       clipPathUnits="userSpaceOnUse"><path
         id="path16"
         d="M 0,612 H 792 V 0 H 0 Z" /></clipPath></defs><g
     transform="matrix(1.3333333,0,0,-1.3333333,0,816)"
     id="g10">
    <circle cx="394" cy="305" r="45" fill="white" />
  <g
       id="g12"><g
         clip-path="url(#clipPath18)"
         id="g14"><g
           id="g56"><path
             id="path58"
             style="fill:#000000;fill-opacity:1;fill-rule:nonzero;stroke:none"
             d="m 0,0 h -1.331 v 5.04 l -4.421,7.564 h 1.578 l 3.538,-6.326 3.51,6.326 H 4.392 L 0,5.036 Z" /></g><g
           transform="translate(438.7642,337.8532)"
           id="g60"><path
             id="path62"
             style="fill:#000000;fill-opacity:1;fill-rule:nonzero;stroke:none"
             d="m 0,0 h 0.809 c 0.528,0 0.853,0.337 0.853,0.753 0,0.415 -0.218,0.693 -0.848,0.693 H 0 Z m 0.848,2.051 c 1.165,0 1.51,-0.607 1.51,-1.235 0,-0.605 -0.367,-1.001 -0.79,-1.206 L 2.592,-2.321 H 1.816 l -0.879,1.725 h -0.94 v -1.725 h -0.639 v 4.372 z m -3.793,-2.259 c 0,-2.335 1.704,-3.803 3.745,-3.803 2.038,0 3.732,1.468 3.732,3.803 0,2.343 -1.694,3.788 -3.732,3.788 -2.038,0 -3.745,-1.452 -3.745,-3.788 m 8.143,0 c 0,-2.735 -2.051,-4.443 -4.398,-4.443 -2.35,0 -4.411,1.708 -4.411,4.443 0,2.733 2.061,4.428 4.411,4.428 2.347,0 4.398,-1.695 4.398,-4.428" /></g><g
           transform="translate(394.3133,350.8752)"
           id="g64"><path
             id="path66"
             style="fill:#000000;fill-opacity:1;fill-rule:nonzero;stroke:none"
             d="m 0,0 c -23.956,0 -43.582,-18.472 -45.447,-41.947 l 24.443,-10.106 c 2.071,1.416 4.573,2.244 7.265,2.244 0.241,0 0.481,-0.006 0.719,-0.02 l 10.871,15.756 c 0,0.075 -0.002,0.148 -0.002,0.223 0,9.483 7.715,17.199 17.199,17.199 9.483,0 17.199,-7.716 17.199,-17.199 0,-9.484 -7.716,-17.2 -17.199,-17.2 -0.131,0 -0.26,0.003 -0.39,0.006 L -0.845,-62.106 c 0.008,-0.202 0.015,-0.407 0.015,-0.611 0,-7.119 -5.791,-12.91 -12.909,-12.91 -6.249,0 -11.473,4.461 -12.657,10.367 l -17.481,7.227 c 5.413,-19.143 23,-33.177 43.877,-33.177 25.187,0 45.605,20.419 45.605,45.605 C 45.605,-20.418 25.187,0 0,0" /></g><g
           transform="translate(377.4453,281.6768)"
           id="g68"><path
             id="path70"
             style="fill:#000000;fill-opacity:1;fill-rule:nonzero;stroke:none"
             d="m 0,0 -5.602,2.314 c 0.993,-2.067 2.711,-3.797 4.991,-4.748 4.929,-2.054 10.613,0.286 12.668,5.218 0.994,2.388 1.001,5.021 0.015,7.413 C 11.087,12.59 9.228,14.456 6.84,15.452 4.47,16.438 1.931,16.401 -0.3,15.56 L 5.487,13.167 C 9.123,11.651 10.842,7.476 9.327,3.84 7.813,0.204 3.636,-1.516 0,0" /></g><g
           transform="translate(400.7715,317.0446)"
           id="g72"><path
             id="path74"
             style="fill:#000000;fill-opacity:1;fill-rule:nonzero;stroke:none"
             d="m 0,0 c 0,4.755 3.855,8.608 8.609,8.608 4.755,0 8.609,-3.853 8.609,-8.608 0,-4.755 -3.854,-8.608 -8.609,-8.608 C 3.855,-8.608 0,-4.755 0,0 m 20.05,-0.02 c 0,6.319 -5.141,11.461 -11.46,11.461 -6.319,0 -11.46,-5.142 -11.46,-11.461 0,-6.319 5.141,-11.459 11.46,-11.459 6.319,0 11.46,5.14 11.46,11.459" /></g></g></g></g></svg>
